<?xml version="1.0" encoding="utf-8" ?><svg xmlns="http://www.w3.org/2000/svg" xmlns:xlink="http://www.w3.org/1999/xlink" width="300" height="300" viewBox="0 0 500 500"><path fill="#FE841A" d="M284.921 124.475C286.525 124.418 314.755 140.705 317.987 142.802C306.889 149.901 294.607 156.053 283.469 163.15C282.942 163.485 283.074 163.972 283.097 164.498C283.465 165.229 285.397 166.347 286.124 166.766C308.603 179.744 331.29 192.37 353.756 205.365C355.304 206.26 356.435 207.203 358.144 207.942C370.137 201.049 382.276 193.173 394.669 186.899C400.753 189.203 409.767 195.304 415.764 198.56C417.928 199.735 426.047 204.12 427.637 205.573C420.204 209.339 413.083 214.247 405.675 218.184C403.513 219.333 393.062 224.729 392.651 226.832C394.625 229.594 421.698 243.734 427.49 247.565L394.629 266.454C393.306 265.601 389.355 263.647 387.54 262.564C377.97 256.855 367.615 251.572 358.167 245.693C353.439 248.051 347.414 251.8 342.732 254.516L316.499 269.695L294.639 282.284C292.343 283.607 282.982 288.408 282.3 290.332C282.68 291.083 284.14 292.159 284.906 292.594C295.606 298.668 306.36 304.957 317.018 311.07C308.322 316.999 297.874 322.018 288.83 327.53C287.428 328.385 285.954 329.227 284.484 329.957C281.755 329.302 251.26 311.577 247.665 309.173C245.68 310.658 238.128 314.938 235.582 316.382C227.962 320.703 220.032 325.568 212.339 329.627L211.197 330.149C209.5 330.111 181.322 313.997 178.278 311.653C182.503 309.354 212.172 292.334 213.047 291.06C213.194 290.845 213.189 290.841 213.103 290.584C212.774 289.601 211.348 288.718 210.492 288.173C204.931 284.635 198.951 281.604 193.218 278.349L159.57 259.132C152.665 255.202 144.757 250.978 138.089 246.761C129.775 251.305 121.322 256.773 112.96 261.348C110.387 262.754 103.671 267.047 101.278 267.559C96.9516 266.762 85.5926 258.637 80.8966 256.447C78.9135 255.522 70.6413 250.831 69.212 249.563L69.2137 249.184C70.5136 247.861 76.6223 244.549 78.5313 243.452C83.6479 240.511 88.7146 237.428 93.823 234.466C97.4396 232.368 100.667 231.011 104.037 228.425C101.666 225.401 93.2547 221.356 89.5569 219.211C82.8201 215.302 75.8154 211.212 68.9235 207.596C73.4591 203.662 81.5007 199.746 86.8526 196.628C90.7661 194.348 98.0027 189.565 102.057 188.489C109.766 192.632 117.374 197.221 125.031 201.423C127.306 202.672 136.53 208.542 138.405 208.977C145.377 204.516 153.664 199.924 160.904 195.759L191.551 178.099L203.989 171.024C206.682 169.516 211.371 167.048 213.596 165.227L213.647 164.61C212.708 162.15 205.394 158.685 202.733 157.176L186.209 147.723C184.947 147.013 180.331 144.59 179.636 143.825L179.735 143.379C183.286 140.156 205.687 128.165 210.993 125.39C211.703 125.019 212.593 125.186 213.343 125.484C216.613 126.783 219.836 128.945 222.896 130.705L239.935 140.435C242.538 141.929 245.689 143.996 248.318 145.262L248.611 145.4C253.497 142.236 259.318 138.854 264.441 136.049C270.56 132.7 278.619 127.046 284.921 124.475ZM247.843 271.491C266.57 260.873 285.155 249.529 303.909 238.894C310.566 235.119 318.134 231.63 324.226 227.003C320.709 223.879 311.974 219.417 307.569 216.908L277.094 199.602L254.131 186.408C252.825 185.663 249.397 183.416 248.567 182.979C230.586 193.881 211.921 203.815 193.938 214.692C188.483 217.992 176.764 223.408 172.826 227.442L172.743 227.946C174.664 230.522 218.429 254.626 224.225 257.981L241.355 267.77C242.376 268.366 247.319 271.426 247.843 271.491Z"/><path fill="#FE841A" d="M250.186 188.626C253.59 190.261 259.192 193.704 262.715 195.674L293.607 213.257L308.623 221.809C311.255 223.33 314.632 225.124 316.935 227.03C315.93 228.483 307.287 233.051 305.105 234.266C298.537 237.755 291.542 242.276 284.739 245.937C283.312 245.439 276.128 241.204 274.396 240.189C266.462 235.54 258.001 231.074 250.209 226.309C249.818 223.856 249.906 214.664 249.955 211.802C250.08 204.439 249.713 195.893 250.186 188.626Z"/><path fill="#FE841A" d="M245.67 189.004C246.101 189.075 245.895 188.978 246.243 189.376C246.483 190.879 246.234 197.922 246.233 200.129L246.259 216.062C246.267 218.24 246.439 223.916 246.019 225.684C244.003 228.572 216.952 243.032 211.543 246.304C211.483 246.281 211.423 246.259 211.363 246.237L211.065 246.118C209.696 245.587 208.714 245.07 207.462 244.306C202.103 241.038 196.512 238.127 191.12 234.921C186.917 232.638 182.75 230.103 178.563 227.742L217.799 205.024C226.97 199.742 236.417 194.092 245.67 189.004Z"/><path fill="#FE841A" d="M140.086 252.348C141.827 253.555 145.576 255.394 147.696 256.62C155.847 261.336 164.076 266.057 172.319 270.607C183.818 276.954 195.603 284.354 207.15 290.534C203.425 293.179 198.642 295.88 194.598 298.124C188.77 301.491 179.984 306.851 174.188 309.687C172.138 308.285 168.92 306.575 166.669 305.295L153.252 297.712C149.86 295.808 143.142 291.658 139.886 290.238C139.251 282.255 140.12 273.169 139.775 265.072C139.607 261.13 139.695 256.262 140.086 252.348Z"/><path fill="#FE841A" d="M355.549 251.486L355.869 251.569C356.211 252.271 355.677 285.362 355.654 288.789C351.164 291.995 341.863 296.697 336.92 299.678C333.314 301.852 324.115 307.409 320.742 308.803C314.373 304.993 307.417 301.311 300.911 297.501C297.443 295.642 291.859 292.556 288.695 290.432C291.075 288.025 302.626 281.92 306.486 279.646L332.965 264.347C340.412 260.031 347.892 255.447 355.549 251.486Z"/><path fill="#FE841A" d="M318.746 314.532C319.081 314.879 319.218 315.311 319.23 315.788C319.523 327.669 319.2 339.75 319.332 351.633C316.585 353.694 310.528 356.978 307.306 358.813L286.496 370.775L286.091 370.641C284.836 368.565 286.311 338.143 286.447 333.889C286.486 332.701 296.024 327.436 297.772 326.429L318.746 314.532Z"/><path fill="#FE841A" d="M135.266 252.734L135.867 252.706L136.23 253.119C136.576 254.559 136.336 256.29 136.32 257.8C136.217 267.406 136.314 277.012 136.287 286.618C136.284 287.636 136.124 288.651 135.833 289.626C134.207 291.505 107.924 306.156 103.614 308.475C103.223 308.686 103.455 308.628 102.898 308.53C102.669 307.844 103.226 274.287 103.57 271.223C107.827 268.151 114.902 264.533 119.565 261.72C124.534 258.722 130.162 255.464 135.266 252.734Z"/><path fill="#FE841A" d="M245.078 315.138C245.403 315.241 245.383 315.275 245.673 315.483C245.175 327.104 245.839 340.279 245.623 352.076C243.046 354.182 238.131 356.829 235.095 358.552C227.97 362.597 220.763 366.865 213.605 370.822C213.318 370.96 213.288 370.904 212.92 370.902C212.22 369.728 212.409 337.432 212.859 334.106C213.631 333.377 214.628 332.555 215.537 332.006C223.003 327.497 230.69 323.383 238.231 319.001C240.504 317.68 242.858 316.544 245.078 315.138Z"/><path fill="#FE841A" d="M249.505 315.055C252.147 315.981 260.014 320.648 262.913 322.305C269.389 326.009 276.071 329.718 282.441 333.573C282.577 338.13 282.318 343.361 282.226 347.988L281.933 370.421L281.629 370.516C279 370.027 269.375 363.702 266.411 362.148C261.093 359.361 255.303 355.948 250.189 352.823C248.768 351.955 249.239 340.444 249.254 338.492L249.505 315.055Z"/><path fill="#FE841A" d="M428.175 251.23C428.549 251.286 428.602 251.196 428.779 251.455C429.534 252.558 429.726 284.997 428.88 287.87C428.366 289.614 400.483 304.837 397.095 306.733C396.901 306.741 396.658 306.655 396.452 306.603C396.006 305.444 396.276 272.964 396.517 269.77C398.418 268.353 400.978 266.879 403.058 265.701C411.472 260.933 419.856 256.165 428.175 251.23Z"/><path fill="#FE841A" d="M176.439 315.364C177.112 315.58 176.608 315.379 177.266 315.764C185.14 320.356 193.178 324.688 201.085 329.226C202.498 330.037 203.903 330.871 205.3 331.711C206.517 332.443 207.654 333.091 208.663 334.102C209.452 336.819 209.101 367.669 208.809 371.326L186.632 358.893C184.534 357.716 178.128 353.92 176.204 353.279C175.853 341.9 176.348 330.435 176.263 319.045C176.254 317.803 176.278 316.598 176.439 315.364Z"/><path fill="#FE841A" d="M66.9618 252.857C73.5519 256.467 80.2805 260.592 86.9063 264.231C89.4892 265.65 97.1594 269.756 98.9609 271.421C99.1043 275.404 99.3427 307.908 98.6874 308.784C95.3965 306.556 89.1498 303.395 85.4457 301.3C79.661 298.028 72.4558 293.419 66.5764 290.684C66.0377 287.36 66.2832 278.143 66.3822 274.39C66.5634 267.515 66.4172 259.603 66.9618 252.857Z"/><path fill="#FE841A" d="M360.103 251.311C361.759 251.722 390.358 268.322 392.493 269.935C392.756 271.957 392.661 273.655 392.636 275.679C392.51 285.942 392.385 296.182 392.049 306.442L391.798 306.606C391.348 306.601 390.924 306.575 390.525 306.347C380.446 300.586 370.197 294.975 360.214 289.058C359.784 285.654 359.941 277.69 359.967 273.891C360.019 266.565 359.791 258.566 360.103 251.311Z"/><path fill="#FE841A" d="M429.226 208.989C429.354 209.017 429.62 209.17 429.752 209.238C429.847 211.427 429.694 213.719 429.706 215.918C429.755 225.223 429.236 234.664 429.232 243.944C422.938 240.626 416.872 236.962 410.625 233.536C406.769 231.536 402.833 228.874 398.935 226.765C400.208 225.559 400.882 225.174 402.375 224.26C411.173 218.878 420.136 213.863 429.226 208.989Z"/><path fill="#FE841A" d="M319.924 146.184C320.158 149.095 319.967 154.311 319.951 157.504L319.767 181.442C314.705 179.281 305.529 173.434 300.077 170.497C296.312 168.445 292.719 166.305 289.033 164.124C291.858 162.012 297.586 158.831 300.72 157.049L319.924 146.184Z"/><path fill="#FE841A" d="M177.164 146.9C183.824 150.925 191.191 154.581 197.866 158.626C199.252 159.465 206.674 163.714 207.602 164.495L207.54 164.943C206.71 165.445 205.942 165.627 205.261 166.045C202.512 167.73 199.757 169.36 196.973 170.983C190.278 174.621 183.845 178.643 177.027 182.204L176.999 160.49C176.987 156.661 176.82 150.595 177.164 146.9Z"/><path fill="#FE841A" d="M67.0362 210.775C68.6737 211.349 95.5847 226.81 96.8677 228.066L96.8354 228.463C95.1469 229.896 88.4221 233.618 86.093 234.946C81.492 237.451 76.973 240.245 72.3721 242.77C70.6788 243.699 68.7886 244.738 67.2327 245.87C66.8461 241.823 66.9851 236.473 66.9865 232.338L67.0362 210.775Z"/></svg>
